<svg xmlns="http://www.w3.org/2000/svg" width="512" height="512" viewBox="0 0 108 108">
  <rect width="108" height="108" fill="#063F3B"/>
  <g transform="rotate(-16 27 58)">
    <rect x="9" y="33" width="36" height="50" rx="5" fill="#F7F4EC"/>
    <rect x="12.5" y="36.5" width="29" height="43" rx="3" fill="#0B5149"/>
    <rect x="16" y="42" width="7" height="7" rx="1" fill="#F0B35A" opacity="0.55"/>
    <rect x="31" y="42" width="7" height="7" rx="1" fill="#F0B35A" opacity="0.55"/>
    <rect x="16" y="56" width="7" height="7" rx="1" fill="#F0B35A" opacity="0.55"/>
    <rect x="31" y="56" width="7" height="7" rx="1" fill="#F0B35A" opacity="0.55"/>
    <rect x="22" y="50" width="9" height="9" rx="1.5" fill="#42D7D0"/>
  </g>
  <g transform="rotate(16 81 58)">
    <rect x="63" y="33" width="36" height="50" rx="5" fill="#F7F4EC"/>
    <rect x="66.5" y="36.5" width="29" height="43" rx="3" fill="#0B5149"/>
    <rect x="70" y="42" width="7" height="7" rx="1" fill="#F0B35A" opacity="0.55"/>
    <rect x="85" y="42" width="7" height="7" rx="1" fill="#F0B35A" opacity="0.55"/>
    <rect x="70" y="56" width="7" height="7" rx="1" fill="#F0B35A" opacity="0.55"/>
    <rect x="85" y="56" width="7" height="7" rx="1" fill="#F0B35A" opacity="0.55"/>
    <rect x="76" y="50" width="9" height="9" rx="1.5" fill="#42D7D0"/>
  </g>
  <rect x="36" y="24" width="36" height="52" rx="6" fill="#F7F4EC"/>
  <path fill="#1A1A1A" d="M41,32h2.2v2.2h-1.1v1.1H41V32zm0,3.3h2.2v4.4H41V35.3z"/>
  <path fill="#1A1A1A" d="M42.1,38.8c-0.7,0.7-1.3,1.2-1.3,1.9s0.6,1.2,1.3,1.9c0.7-0.7,1.3-1.2,1.3-1.9s-0.6-1.2-1.3-1.9z"/>
  <path fill="#1A1A1A" d="M54,44c-3.5,3.5-7,5-7,9s3.5,5.5,7,9.5c3.5-4,7-5.5,7-9.5s-3.5-5.5-7-9.5zm0,20.5l-3,5.5h6l-3-5.5z"/>
</svg>
